<?xml version="1.0" encoding="UTF-8"?>
<svg version="1.1" xmlns="http://www.w3.org/2000/svg" width="500" height="208">
<path d="M0 0 C64.35 0 128.7 0 195 0 C195 10.56 195 21.12 195 32 C190.05 32 185.1 32 180 32 C180 26.06 180 20.12 180 14 C125.55 14 71.1 14 15 14 C15 68.12 15 122.24 15 178 C69.45 178 123.9 178 180 178 C180 171.4 180 164.8 180 158 C184.95 158 189.9 158 195 158 C195 169.55 195 181.1 195 193 C130.65 193 66.3 193 0 193 C0 129.31 0 65.62 0 0 Z " fill="#A3138E" transform="translate(10,9)"/>
<path d="M0 0 C46.92571429 0 46.92571429 0 60 11 C70.24875574 21.61230957 74.84703825 33.29867635 75 48 C74.09663178 58.91211448 70.03310656 67.71279733 63 76 C62.47535156 76.62003906 61.95070312 77.24007812 61.41015625 77.87890625 C53.76932622 86.20291637 44.9921701 88.25195748 34 91 C22.78 91 11.56 91 0 91 C0 60.97 0 30.94 0 0 Z M14 13 C14 34.45 14 55.9 14 78 C34.963604 78.06083214 34.963604 78.06083214 52.328125 67.97265625 C58.56590287 60.61266133 61.62630309 51.55112208 61 42 C59.08242019 32.20084214 54.39793901 23.65245895 46 18 C35.13553102 12.76304191 26.60178203 13 14 13 Z " fill="#000000" transform="translate(190,57)"/>
<path d="M0 0 C3.19333967 2.64239297 4.53613064 6.00723673 6.125 9.7265625 C6.42439484 10.41026917 6.72378967 11.09397583 7.03225708 11.79840088 C7.68420459 13.28800203 8.33318345 14.77890515 8.97955322 16.27093506 C10.7383842 20.3283758 12.52107787 24.37527798 14.3046875 28.421875 C14.86795242 29.70087173 14.86795242 29.70087173 15.44259644 31.00570679 C20.63424374 42.75301389 26.08841599 54.37987341 31.52734375 66.01416016 C44 92.72999869 44 92.72999869 44 95 C39.38 95 34.76 95 30 95 C27.33333333 89.66666667 24.66666667 84.33333333 22 79 C21.62987793 78.32163086 21.25975586 77.64326172 20.87841797 76.94433594 C20 75 20 75 20 72 C7.46 72.33 -5.08 72.66 -18 73 C-20.91732834 79.49173751 -20.91732834 79.49173751 -23.83374023 85.98388672 C-24.19669189 86.79100098 -24.55964355 87.59811523 -24.93359375 88.4296875 C-25.30540771 89.25710449 -25.67722168 90.08452148 -26.06030273 90.93701172 C-26.68240177 92.30275264 -27.32884346 93.65768693 -28 95 C-32.62 95 -37.24 95 -42 95 C-39.61669493 87.00786421 -36.18117263 79.56660522 -32.67877197 72.02059937 C-30.87017258 68.12354693 -29.07697605 64.21940268 -27.28125 60.31640625 C-26.91838898 59.52889481 -26.55552795 58.74138336 -26.18167114 57.93000793 C-22.77871891 50.53833063 -19.44278735 43.11771518 -16.125 35.6875 C-10.79901186 23.76915314 -5.42008181 11.8758362 0 0 Z M0 31 C-1.8537662 35.11067345 -3.70511632 39.22242283 -5.55419922 43.33520508 C-6.18406326 44.73524619 -6.81459584 46.13498674 -7.44580078 47.53442383 C-8.35102918 49.5417003 -9.25387683 51.5500324 -10.15625 53.55859375 C-10.44060913 54.18777206 -10.72496826 54.81695038 -11.01794434 55.4651947 C-12.41068344 58.13035925 -12.41068344 58.13035925 -13 61 C-4.09 61 4.82 61 14 61 C12.61135903 56.8340771 11.22363054 53.11157302 9.3984375 49.1640625 C8.90859375 48.10058594 8.41875 47.03710938 7.9140625 45.94140625 C7.40617187 44.84699219 6.89828125 43.75257812 6.375 42.625 C5.859375 41.50738281 5.34375 40.38976562 4.8125 39.23828125 C3.54446772 36.49087798 2.2735532 33.7448473 1 31 C0.67 31 0.34 31 0 31 Z " fill="#000000" transform="translate(104,53)"/>
<path d="M0 0 C5.14581425 -1.40922714 10.07352849 -2.40094168 15 0 C20.15232191 5.48894556 23.30743033 12.59161369 26.61816406 19.28125 C29.73320073 26.11786828 29.73320073 26.11786828 35 31 C35.26466064 30.30237549 35.52932129 29.60475098 35.80200195 28.88598633 C37.87515923 23.89173481 40.48153442 19.201459 43.1628418 14.5144043 C43.84430394 13.29939806 44.50444088 12.07217602 45.14233398 10.83374023 C47.28722868 6.68679675 49.43276698 3.10756791 53 0 C58.23225915 -1.06139927 62.70238477 -0.79522989 68 0 C66.54754491 3.93378903 64.69227191 7.40566651 62.55078125 11.0078125 C62.04722359 11.8570076 62.04722359 11.8570076 61.53349304 12.72335815 C60.82325357 13.91944174 60.11129024 15.11450319 59.39770508 16.30859375 C58.32946901 18.09659743 57.26680935 19.8878153 56.20507812 21.6796875 C55.50810149 22.8517344 54.81083757 24.02361051 54.11328125 25.1953125 C53.77185089 25.77081848 53.43042053 26.34632446 53.0786438 26.93927002 C50.28170421 31.61800124 47.26625624 36.12813901 44.14135742 40.59326172 C42.67142494 43.69285411 42.85819573 44.77999272 44 48 C45.28777364 50.4451466 46.60825102 52.78183953 48.04296875 55.13671875 C48.44904861 55.81620071 48.85512848 56.49568268 49.27351379 57.195755 C50.57137505 59.36383658 51.87922139 61.52569203 53.1875 63.6875 C54.0481949 65.12134351 54.90822746 66.55558482 55.76757812 67.99023438 C58.81532185 73.07288068 61.87521182 78.14805328 64.95166016 83.21337891 C65.49999512 84.11878418 66.04833008 85.02418945 66.61328125 85.95703125 C67.08161377 86.72635986 67.54994629 87.49568848 68.0324707 88.28833008 C69 90 69 90 69 91 C63.9576735 91.96812669 58.91940295 92.78555174 54 91 C49.83302288 87.42097704 47.56779106 82.11181978 45.16601562 77.27197266 C43.27898119 73.59510028 41.05975384 70.130015 38.875 66.625 C35 60.32712711 35 60.32712711 35 58 C34.34 58 33.68 58 33 58 C32.72454346 58.73049561 32.44908691 59.46099121 32.1652832 60.21362305 C31.06724897 62.83919706 29.82701326 65.15057109 28.35546875 67.58203125 C27.84306641 68.43216797 27.33066406 69.28230469 26.80273438 70.15820312 C26.26970703 71.03412109 25.73667969 71.91003906 25.1875 72.8125 C24.66607422 73.67681641 24.14464844 74.54113281 23.60742188 75.43164062 C22.57297285 77.14280786 21.52891005 78.84820381 20.47485352 80.54736328 C19.52051417 82.1344007 18.6155633 83.75265438 17.77319336 85.40185547 C16.65057054 87.51329402 15.64818538 89.26648859 14 91 C10.89371665 91.6437893 9.20577352 91.8003832 6.1875 91.5 C5.49462891 91.46390625 4.80175781 91.4278125 4.08789062 91.390625 C2.38951898 91.29692174 0.69402143 91.15342081 -1 91 C0.39488798 86.09539388 2.61536304 82.11293702 5.375 77.875 C6.27000793 76.47379083 7.16314584 75.07138594 8.0546875 73.66796875 C8.52874023 72.92208496 9.00279297 72.17620117 9.49121094 71.40771484 C12.76790616 66.17878794 15.90438318 60.86413102 19.06396484 55.56396484 C19.54816895 54.75266113 20.03237305 53.94135742 20.53125 53.10546875 C20.95986328 52.38512451 21.38847656 51.66478027 21.83007812 50.92260742 C22.84460465 49.25537112 23.9174189 47.62387164 25 46 C24.64598963 42.42458938 22.7759738 39.69239425 20.9375 36.66796875 C20.3091626 35.62842041 19.6808252 34.58887207 19.03344727 33.51782227 C18.36240967 32.41881592 17.69137207 31.31980957 17 30.1875 C16.32316162 29.06851318 15.64632324 27.94952637 14.94897461 26.79663086 C12.44442782 22.65724212 9.92946704 18.52426884 7.41064453 14.39355469 C6.51509876 12.92449905 5.62090579 11.45461725 4.72851562 9.98364258 C3.96975044 8.73349114 3.20693364 7.48578682 2.43945312 6.2409668 C0 2.22434278 0 2.22434278 0 0 Z " fill="#000000" transform="translate(411,57)"/>
<path d="M0 0 C6.68579146 5.46110443 11.09881026 11.91176986 12.77734375 20.45703125 C12.77734375 23.09703125 12.77734375 25.73703125 12.77734375 28.45703125 C-3.39265625 28.78703125 -19.56265625 29.11703125 -36.22265625 29.45703125 C-32.21394362 38.85581351 -32.21394362 38.85581351 -24.22265625 43.45703125 C-17.83083551 45.27031373 -12.12038285 44.48004392 -6.22265625 41.45703125 C-4.25408468 39.91062421 -2.84225349 38.39009892 -1.22265625 36.45703125 C3.37040871 37.94302285 6.2130362 40.30717807 9.77734375 43.45703125 C4.56777101 50.30446209 -1.2908459 55.42270842 -9.96875 57.171875 C-20.02666134 58.44436638 -28.84451365 57.56037555 -37.51171875 51.984375 C-43.66134395 47.11304268 -47.79202335 40.21106158 -49.22265625 32.45703125 C-50.06269736 21.39878519 -49.00344968 13.80205797 -41.91015625 5.20703125 C-30.54695464 -6.95571334 -14.10858791 -9.79418668 0 0 Z M-31.16015625 11.33203125 C-33.66445972 13.64282386 -33.66445972 13.64282386 -35.22265625 18.45703125 C-24.00265625 18.45703125 -12.78265625 18.45703125 -1.22265625 18.45703125 C-5.20775235 12.47938709 -7.60891878 8.98912548 -14.47265625 7.01953125 C-20.86090684 5.81641072 -25.81755855 7.92186251 -31.16015625 11.33203125 Z " fill="#000000" transform="translate(323.22265625,92.54296875)"/>
<path d="M0 0 C4.95 0 9.9 0 15 0 C15.83144531 1.73507813 16.66289062 3.47015625 17.51953125 5.2578125 C18.61716147 7.54688748 19.71481916 9.83594929 20.8125 12.125 C21.35970703 13.26710938 21.90691406 14.40921875 22.47070312 15.5859375 C23.26831055 17.24882813 23.26831055 17.24882813 24.08203125 18.9453125 C24.56905518 19.96125488 25.0560791 20.97719727 25.55786133 22.02392578 C27.01390564 25.02869641 28.50056098 28.01668033 30 31 C35.48040709 20.73511053 40.83993667 10.42991525 46 0 C50.62 0 55.24 0 60 0 C58.41027419 4.76917744 56.61309435 9.09692479 54.40234375 13.57421875 C53.87654976 14.65116249 53.87654976 14.65116249 53.34013367 15.74986267 C52.20947773 18.06416795 51.07374258 20.37593312 49.9375 22.6875 C48.39019145 25.84420422 46.84499462 29.00193688 45.30078125 32.16015625 C44.73553741 33.31514618 44.73553741 33.31514618 44.15887451 34.49346924 C42.0528703 38.80707653 39.98756482 43.1352663 37.98046875 47.49609375 C37.56998291 48.38659424 37.15949707 49.27709473 36.73657227 50.19458008 C36.01609488 51.7698826 35.30380721 53.34896687 34.60131836 54.93237305 C33.80995568 56.65836411 32.91554434 58.33654619 32 60 C30.515 60.495 30.515 60.495 29 61 C25.80509563 54.52529125 22.61427732 48.0485856 19.42846298 41.56939888 C17.94856141 38.5599451 16.46693849 35.55136831 14.98291016 32.54394531 C13.27156666 29.07527765 11.56503659 25.60427699 9.859375 22.1328125 C9.33317566 21.06886261 8.80697632 20.00491272 8.26483154 18.90872192 C5.21921802 12.69651651 2.48701828 6.45688218 0 0 Z " fill="#000000" transform="translate(343,89)"/>
<path d="M0 0 C4.29 0 8.58 0 13 0 C13 30.03 13 60.06 13 91 C8.71 91 4.42 91 0 91 C0 60.97 0 30.94 0 0 Z " fill="#000000" transform="translate(158,57)"/>
</svg>